<svg width="72" height="48" viewBox="0 0 72 48" fill="none" xmlns="http://www.w3.org/2000/svg" xmlns:xlink="http://www.w3.org/1999/xlink">
<rect width="72" height="48" fill="white"/>
<path d="M20 23.5L26.8333 10L33.6667 23.5L26.8333 37L20 23.5Z" fill="url(#pattern0_8_144)" stroke="#E6308A" stroke-linejoin="round"/>
<path d="M38.6667 23.5L45.5 10L52.3334 23.5L45.5 37L38.6667 23.5Z" fill="url(#pattern1_8_144)" stroke="#E6308A" stroke-linejoin="round"/>
<defs>
<pattern id="pattern0_8_144" patternUnits="userSpaceOnUse" patternTransform="matrix(47 0 0 11 20 9.5)" preserveAspectRatio="none" viewBox="0 -0.5 47 11" width="1" height="1">
<use xlink:href="#pattern0_8_144_inner" transform="translate(0 -11)"/>
<g id="pattern0_8_144_inner">
<path d="M0 0H47M0 2.2H47" stroke="#E6308A"/>
<path d="M0 4.4H47M0 6.6H47" stroke="#E6308A"/>
<path d="M0 8.8H47M0 11H47" stroke="#E6308A"/>
</g>
</pattern><pattern id="pattern1_8_144" patternUnits="userSpaceOnUse" patternTransform="matrix(47 0 0 11 38.6667 9.5)" preserveAspectRatio="none" viewBox="0 -0.5 47 11" width="1" height="1">
<use xlink:href="#pattern1_8_144_inner" transform="translate(0 -11)"/>
<g id="pattern1_8_144_inner">
<path d="M0 0H47M0 2.2H47" stroke="#E6308A"/>
<path d="M0 4.4H47M0 6.6H47" stroke="#E6308A"/>
<path d="M0 8.8H47M0 11H47" stroke="#E6308A"/>
</g>
</pattern></defs>
</svg>
