<svg width="72" height="48" viewBox="0 0 72 48" fill="none" xmlns="http://www.w3.org/2000/svg" xmlns:xlink="http://www.w3.org/1999/xlink">
<rect width="72" height="48" fill="white"/>
<path d="M33.619 18.2125C33.619 10.6214 27.1488 9.64974 22.546 10.0881C21.4 10.1973 20.9448 11.5703 21.6306 12.4949C22.8516 14.141 24.2951 16.4779 24.1905 18.2125C23.8995 23.0354 21.0476 24.4823 21.0476 29.7875C21.0476 37.3786 27.5179 38.3503 32.1207 37.9119C33.2666 37.8027 33.7218 36.4297 33.0361 35.5051C31.815 33.859 30.3715 31.5221 30.4762 29.7875C30.7672 24.9646 33.619 23.5177 33.619 18.2125Z" fill="url(#pattern0_8_216)" stroke="#0073E6" stroke-linejoin="round"/>
<path d="M51.2857 18.2125C51.2857 10.6214 44.8155 9.64974 40.2127 10.0881C39.0667 10.1973 38.6115 11.5703 39.2973 12.4949C40.5183 14.141 41.9618 16.4779 41.8572 18.2125C41.5662 23.0354 38.7143 24.4823 38.7143 29.7875C38.7143 37.3786 45.1845 38.3503 49.7874 37.9119C50.9333 37.8027 51.3885 36.4297 50.7027 35.5051C49.4817 33.859 48.0382 31.5221 48.1429 29.7875C48.4339 24.9646 51.2857 23.5177 51.2857 18.2125Z" fill="url(#pattern1_8_216)" stroke="#0073E6" stroke-linejoin="round"/>
<defs>
<pattern id="pattern0_8_216" patternUnits="userSpaceOnUse" patternTransform="matrix(47 0 0 11 20.9448 9.14974)" preserveAspectRatio="none" viewBox="0 -0.5 47 11" width="1" height="1">
<use xlink:href="#pattern0_8_216_inner" transform="translate(0 -11)"/>
<g id="pattern0_8_216_inner">
<path d="M0 0H47M0 2.2H47" stroke="#0073E6"/>
<path d="M0 4.39999H47M0 6.59999H47" stroke="#0073E6"/>
<path d="M0 8.8H47M0 11H47" stroke="#0073E6"/>
</g>
</pattern><pattern id="pattern1_8_216" patternUnits="userSpaceOnUse" patternTransform="matrix(47 0 0 11 38.6115 9.14974)" preserveAspectRatio="none" viewBox="0 -0.5 47 11" width="1" height="1">
<use xlink:href="#pattern1_8_216_inner" transform="translate(0 -11)"/>
<g id="pattern1_8_216_inner">
<path d="M0 0H47M0 2.2H47" stroke="#0073E6"/>
<path d="M0 4.39999H47M0 6.59999H47" stroke="#0073E6"/>
<path d="M0 8.8H47M0 11H47" stroke="#0073E6"/>
</g>
</pattern></defs>
</svg>
