<svg width="72" height="48" viewBox="0 0 72 48" fill="none" xmlns="http://www.w3.org/2000/svg" xmlns:xlink="http://www.w3.org/1999/xlink">
<rect width="72" height="48" fill="white"/>
<path d="M42.2857 18.2125C42.2857 10.6214 35.8155 9.64974 31.2127 10.0881C30.0667 10.1973 29.6115 11.5703 30.2973 12.4949C31.5183 14.141 32.9618 16.4779 32.8572 18.2125C32.5662 23.0354 29.7143 24.4823 29.7143 29.7875C29.7143 37.3786 36.1845 38.3503 40.7874 37.9119C41.9333 37.8027 42.3885 36.4297 41.7027 35.5051C40.4817 33.859 39.0382 31.5221 39.1429 29.7875C39.4339 24.9646 42.2857 23.5177 42.2857 18.2125Z" fill="url(#pattern0_8_85)" stroke="#AC4BB1" stroke-linejoin="round"/>
<defs>
<pattern id="pattern0_8_85" patternUnits="userSpaceOnUse" patternTransform="matrix(47 0 0 11 29.6115 9.14974)" preserveAspectRatio="none" viewBox="0 -0.5 47 11" width="1" height="1">
<use xlink:href="#pattern0_8_85_inner" transform="translate(0 -11)"/>
<g id="pattern0_8_85_inner">
<path d="M0 0H47M0 2.2H47" stroke="#AC4BB1"/>
<path d="M0 4.4H47M0 6.6H47" stroke="#AC4BB1"/>
<path d="M0 8.8H47M0 11H47" stroke="#AC4BB1"/>
</g>
</pattern></defs>
</svg>
