<svg width="72" height="48" viewBox="0 0 72 48" fill="none" xmlns="http://www.w3.org/2000/svg" xmlns:xlink="http://www.w3.org/1999/xlink">
<rect width="72" height="48" fill="white"/>
<path d="M24.619 18.2125C24.619 10.6214 18.1488 9.64974 13.546 10.0881C12.4 10.1973 11.9448 11.5703 12.6306 12.4949C13.8516 14.141 15.2951 16.4779 15.1905 18.2125C14.8995 23.0354 12.0476 24.4823 12.0476 29.7875C12.0476 37.3786 18.5179 38.3503 23.1207 37.9119C24.2666 37.8027 24.7218 36.4297 24.0361 35.5051C22.815 33.859 21.3715 31.5221 21.4762 29.7875C21.7672 24.9646 24.619 23.5177 24.619 18.2125Z" fill="url(#pattern0_9_292)" stroke="#209020" stroke-linejoin="round"/>
<path d="M42.2857 18.2125C42.2857 10.6214 35.8155 9.64974 31.2127 10.0881C30.0667 10.1973 29.6115 11.5703 30.2973 12.4949C31.5183 14.141 32.9618 16.4779 32.8572 18.2125C32.5662 23.0354 29.7143 24.4823 29.7143 29.7875C29.7143 37.3786 36.1845 38.3503 40.7874 37.9119C41.9333 37.8027 42.3885 36.4297 41.7027 35.5051C40.4817 33.859 39.0382 31.5221 39.1429 29.7875C39.4339 24.9646 42.2857 23.5177 42.2857 18.2125Z" fill="url(#pattern1_9_292)" stroke="#209020" stroke-linejoin="round"/>
<path d="M59.9524 18.2125C59.9524 10.6214 53.4821 9.64974 48.8793 10.0881C47.7334 10.1973 47.2782 11.5703 47.9639 12.4949C49.1849 14.141 50.6285 16.4779 50.5238 18.2125C50.2328 23.0354 47.3809 24.4823 47.3809 29.7875C47.3809 37.3786 53.8512 38.3503 58.454 37.9119C59.5999 37.8027 60.0551 36.4297 59.3694 35.5051C58.1484 33.859 56.7048 31.5221 56.8095 29.7875C57.1005 24.9646 59.9524 23.5177 59.9524 18.2125Z" fill="url(#pattern2_9_292)" stroke="#209020" stroke-linejoin="round"/>
<defs>
<pattern id="pattern0_9_292" patternUnits="userSpaceOnUse" patternTransform="matrix(47 0 0 13 11.9448 9.64974)" preserveAspectRatio="none" viewBox="0 0 47 13" width="1" height="1">
<g id="pattern0_9_292_inner">
<path d="M0 1H47M0 3.2H47" stroke="#209020"/>
<path d="M0 5.4H47M0 7.6H47" stroke="#209020"/>
<path d="M0 9.8H47M0 12H47" stroke="#209020"/>
</g>
</pattern><pattern id="pattern1_9_292" patternUnits="userSpaceOnUse" patternTransform="matrix(47 0 0 13 29.6115 9.64974)" preserveAspectRatio="none" viewBox="0 0 47 13" width="1" height="1">
<g id="pattern1_9_292_inner">
<path d="M0 1H47M0 3.2H47" stroke="#209020"/>
<path d="M0 5.4H47M0 7.6H47" stroke="#209020"/>
<path d="M0 9.8H47M0 12H47" stroke="#209020"/>
</g>
</pattern><pattern id="pattern2_9_292" patternUnits="userSpaceOnUse" patternTransform="matrix(47 0 0 13 47.2782 9.64974)" preserveAspectRatio="none" viewBox="0 0 47 13" width="1" height="1">
<g id="pattern2_9_292_inner">
<path d="M0 1H47M0 3.2H47" stroke="#209020"/>
<path d="M0 5.4H47M0 7.6H47" stroke="#209020"/>
<path d="M0 9.8H47M0 12H47" stroke="#209020"/>
</g>
</pattern></defs>
</svg>
